<svg width="86" height="29" viewBox="0 0 86 29" fill="none" xmlns="http://www.w3.org/2000/svg">
<path d="M36.39 14.4051C36.4582 14.4083 36.5264 14.4143 36.5946 14.4143C38.1366 14.4148 39.6786 14.4149 41.2207 14.4144C41.3263 14.4144 41.4319 14.4097 41.5374 14.4071C44.5119 14.4072 47.4864 14.4073 50.4609 14.4077C50.5293 14.4077 50.5977 14.4097 50.666 14.4133C50.6754 14.4138 50.6871 14.4275 50.6924 14.4378C50.6978 14.4483 50.6979 14.4621 50.6981 14.4744C50.6989 14.5304 50.6991 14.5865 50.6991 14.6425C50.6992 15.5453 50.6992 16.4481 50.6991 17.3509C50.6991 17.407 50.6988 17.463 50.6975 17.519C50.6967 17.5506 50.6706 17.5742 50.6358 17.575C50.5799 17.5763 50.5239 17.577 50.4678 17.577C45.2281 17.5771 39.9884 17.5772 34.7487 17.5769C34.6928 17.5769 34.6369 17.5745 34.581 17.5723C34.5586 17.5715 34.5345 17.5463 34.5334 17.5236C34.5316 17.4863 34.5297 17.4491 34.5297 17.4118C34.5295 16.4654 34.5295 15.519 34.5299 14.5726C34.5299 14.5294 34.5328 14.486 34.5376 14.443C34.5386 14.4335 34.5517 14.4213 34.5619 14.4176C34.5789 14.4114 34.5981 14.4087 34.6165 14.4083C34.6725 14.4071 34.7285 14.4076 34.7845 14.4075C35.3196 14.4067 35.8548 14.4059 36.39 14.4052V14.4051Z" fill="#1E3D71"/>
<path d="M9.21836 27.3847C9.21836 27.8455 9.21841 28.3064 9.21831 28.7671C9.21831 28.8232 9.21806 28.8792 9.21645 28.9352C9.21524 28.9777 9.19061 28.9986 9.14297 28.9997C9.11809 29.0003 9.09321 29 9.06828 28.9997C9.02864 28.9993 8.99706 28.9857 8.97475 28.9501C8.94171 28.8974 8.90676 28.8458 8.871 28.795C8.80648 28.7031 8.73854 28.6136 8.65454 28.5387C8.60367 28.4934 8.54983 28.4504 8.49277 28.4133C8.394 28.3492 8.28582 28.3308 8.17155 28.3669C8.01149 28.4173 7.85058 28.4652 7.69198 28.52C7.23236 28.6785 6.76196 28.7935 6.2838 28.8791C5.89711 28.9482 5.50775 28.9877 5.11491 28.9926C4.9407 28.9947 4.76639 29.0011 4.59223 28.9991C3.91428 28.9915 3.27798 28.8185 2.67407 28.5145C1.83616 28.0928 1.16879 27.4845 0.670592 26.6901C0.331642 26.1495 0.123236 25.5626 0.0402366 24.9293C-0.00534281 24.5815 -0.0120412 24.2332 0.0199399 23.8856C0.0831466 23.199 0.297949 22.5605 0.662534 21.9744C1.34053 20.8844 2.3046 20.1736 3.53257 19.8156C3.78384 19.7423 4.041 19.6992 4.30183 19.6733C4.63131 19.6406 4.96059 19.6474 5.29022 19.6619C5.37106 19.6655 5.45169 19.6729 5.53253 19.6759C5.84463 19.6877 6.15079 19.7377 6.45363 19.8127C6.7253 19.88 6.99464 19.9553 7.26182 20.0385C7.45799 20.0995 7.65617 20.1528 7.85894 20.1858C7.98162 20.2058 8.10537 20.2204 8.22916 20.2318C8.33488 20.2415 8.44009 20.2319 8.54449 20.2091C8.65292 20.1855 8.74227 20.1332 8.80427 20.0414C8.85292 19.9694 8.89518 19.8931 8.9394 19.8181C8.95355 19.7941 8.9751 19.7825 9.00034 19.7822C9.07477 19.7814 9.14926 19.7826 9.2237 19.7842C9.24662 19.7847 9.26716 19.8094 9.26797 19.8354C9.26933 19.8789 9.27024 19.9225 9.27024 19.9661C9.27039 20.8566 9.27044 21.7471 9.27008 22.6376C9.27008 22.6873 9.26792 22.7371 9.26374 22.7866C9.26293 22.7961 9.24853 22.8052 9.23906 22.8128C9.23473 22.8163 9.22717 22.8166 9.22108 22.8167C9.11537 22.8177 9.00965 22.8188 8.90399 22.8189C8.8773 22.8189 8.85599 22.8047 8.84401 22.7817C8.82114 22.7376 8.80064 22.6922 8.77914 22.6474C8.61435 22.3043 8.42372 21.9767 8.19638 21.671C7.89329 21.2634 7.54104 20.9054 7.1267 20.6103C6.77858 20.3623 6.39984 20.1807 5.98328 20.0791C5.63542 19.9943 5.28312 19.9692 4.9272 19.9953C4.71003 20.0112 4.49432 20.0384 4.28184 20.0903C3.55111 20.2686 2.98542 20.6746 2.58644 21.3125C2.37994 21.6426 2.24119 22.0015 2.14379 22.3769C2.06552 22.6786 2.01501 22.9851 1.98423 23.2956C1.92999 23.8424 1.92758 24.3904 1.96051 24.9376C2 25.5929 2.12002 26.2338 2.3598 26.8486C2.43681 27.046 2.52388 27.2386 2.62733 27.4234C2.74649 27.6363 2.88827 27.8323 3.06137 28.0053C3.34592 28.2896 3.68518 28.4766 4.07388 28.5735C4.27353 28.6233 4.47675 28.6485 4.68329 28.6519C5.71162 28.6692 6.62759 28.3485 7.44646 27.7357C8.0888 27.2549 8.56927 26.647 8.87513 25.9031C8.88933 25.8686 8.90243 25.8333 8.92071 25.8011C8.92882 25.7867 8.94765 25.7713 8.96317 25.7695C9.03685 25.7605 9.11129 25.7557 9.18457 25.773C9.19404 25.7752 9.20441 25.7881 9.20778 25.7981C9.21353 25.8155 9.21599 25.8345 9.21645 25.8529C9.21791 25.9151 9.21836 25.9774 9.21836 26.0397C9.21851 26.4881 9.21841 26.9364 9.21841 27.3848L9.21836 27.3847Z" fill="#1E3D71"/>
<path d="M61.1522 28.8317C59.8637 28.8317 58.5753 28.8317 57.2869 28.8315C57.2247 28.8315 57.1626 28.8293 57.1005 28.8273C57.078 28.8266 57.0547 28.802 57.0538 28.7781C57.0521 28.7283 57.051 28.6786 57.0503 28.6289C57.0485 28.4973 57.0538 28.4944 57.1832 28.4884C57.3323 28.4814 57.4815 28.4724 57.6304 28.4608C57.7171 28.454 57.8034 28.441 57.8897 28.4294C58.0154 28.4124 58.1068 28.3426 58.1752 28.2391C58.2276 28.1597 58.2557 28.0707 58.2714 27.9782C58.2922 27.8554 58.3111 27.7323 58.3103 27.6071C58.3097 27.5075 58.3124 27.4078 58.3124 27.3082C58.3126 25.4274 58.3127 23.5466 58.3123 21.6658C58.3123 21.479 58.3118 21.292 58.3056 21.1054C58.301 20.9686 58.2895 20.832 58.2761 20.6958C58.2544 20.4752 58.1324 20.3287 57.9282 20.2522C57.7935 20.2016 57.6512 20.1811 57.508 20.1716C57.4149 20.1655 57.3214 20.1663 57.2281 20.1643C57.1908 20.1635 57.1534 20.1641 57.1161 20.1631C57.0814 20.1621 57.0537 20.1388 57.0534 20.1084C57.0526 20.0276 57.053 19.9467 57.0537 19.8659C57.0539 19.8477 57.0846 19.8204 57.1052 19.8195C57.1424 19.8178 57.1797 19.8163 57.217 19.8163C58.5427 19.8162 59.8686 19.8162 61.1944 19.8163C61.2379 19.8163 61.2814 19.8181 61.3249 19.8198C61.3508 19.8208 61.3722 19.8412 61.3739 19.8651C61.3748 19.8775 61.3763 19.8899 61.3763 19.9023C61.3759 19.9708 61.3758 20.0393 61.3743 20.1077C61.3735 20.142 61.3514 20.1633 61.3142 20.164C61.1149 20.1678 60.9163 20.1824 60.7183 20.2037C60.6442 20.2116 60.5705 20.2242 60.4973 20.2379C60.3794 20.2601 60.2967 20.3326 60.2354 20.4318C60.189 20.5068 60.1625 20.5904 60.1467 20.6762C60.1252 20.7924 60.1043 20.909 60.103 21.028C60.1018 21.1401 60.0969 21.2521 60.0969 21.3642C60.0965 23.2762 60.0964 25.188 60.0969 27.1C60.0969 27.2495 60.1026 27.3989 60.1042 27.5483C60.1055 27.6733 60.1226 27.7968 60.1416 27.9197C60.1691 28.0963 60.2626 28.2294 60.4146 28.3234C60.5391 28.4005 60.6771 28.4379 60.819 28.4575C60.9605 28.4771 61.1029 28.4919 61.2466 28.4939C61.6638 28.4995 62.0808 28.4964 62.4966 28.4596C62.8752 28.4262 63.2479 28.3613 63.6121 28.2465C63.9822 28.1297 64.2995 27.9318 64.5764 27.6626C64.7959 27.4492 64.992 27.2163 65.1706 26.9682C65.3235 26.7559 65.4637 26.5354 65.595 26.3091C65.62 26.266 65.6457 26.2234 65.6702 26.18C65.6847 26.1545 65.71 26.147 65.7338 26.1509C65.807 26.1626 65.8797 26.1781 65.9521 26.1944C65.9601 26.1962 65.9704 26.2133 65.9698 26.2226C65.9677 26.2533 65.9641 26.2845 65.956 26.3141C65.7356 27.1116 65.5145 27.909 65.2934 28.7063C65.2868 28.7303 65.279 28.7539 65.2709 28.7774C65.2584 28.8135 65.2387 28.8296 65.2043 28.8302C65.1421 28.8312 65.0799 28.8316 65.0176 28.8316C63.7292 28.8317 62.4407 28.8317 61.1523 28.8317H61.1522Z" fill="#1E3D71"/>
<path d="M81.7508 28.8317C80.8795 28.8317 80.0083 28.8317 79.137 28.8317C79.0934 28.8317 79.0498 28.8314 79.0063 28.8317C78.8757 28.8328 78.8631 28.8303 78.8669 28.6808C78.8675 28.6562 78.8706 28.6313 78.8767 28.6076C78.8793 28.5977 78.8917 28.5856 78.9017 28.5832C78.9255 28.5775 78.9506 28.5746 78.9753 28.5746C79.063 28.5746 79.1491 28.5623 79.2337 28.5407C79.2756 28.5301 79.317 28.5157 79.3566 28.4985C79.4163 28.4725 79.4583 28.4266 79.4802 28.3654C79.4969 28.3187 79.5141 28.2708 79.5202 28.222C79.535 28.1048 79.5438 27.9868 79.5538 27.8691C79.5564 27.8381 79.5545 27.8068 79.5545 27.7757C79.5545 26.2315 79.5543 24.6873 79.5549 23.1431C79.555 22.9872 79.5467 22.832 79.5284 22.6773C79.5225 22.6275 79.5125 22.5795 79.492 22.5332C79.457 22.4544 79.3994 22.4008 79.3178 22.3759C79.2403 22.3523 79.1611 22.3363 79.0794 22.3348C79.0236 22.3337 78.9677 22.3297 78.9119 22.3267C78.8895 22.3255 78.8755 22.3066 78.8746 22.291C78.8712 22.2292 78.8708 22.1671 78.8742 22.1054C78.875 22.0901 78.8936 22.0744 78.915 22.0736C78.9522 22.0723 78.9894 22.0698 79.0266 22.0698C80.7256 22.0696 82.4245 22.0696 84.1235 22.0696C84.1484 22.0696 84.1735 22.0719 84.1981 22.0694C84.2658 22.0625 84.2958 22.0976 84.3193 22.1576C84.5303 22.6962 84.7439 23.2338 84.9565 23.7718C84.9632 23.7887 84.9685 23.8071 84.9691 23.825C84.9695 23.8353 84.9619 23.8512 84.9533 23.8555C84.9257 23.8692 84.8957 23.8782 84.8671 23.8899C84.841 23.9006 84.816 23.8952 84.7985 23.8767C84.7644 23.8406 84.7339 23.8011 84.7021 23.7627C84.4959 23.513 84.2853 23.2671 84.0513 23.0428C83.9481 22.9438 83.8411 22.8482 83.7302 22.758C83.4684 22.545 83.1666 22.4222 82.8346 22.3665C82.6927 22.3427 82.5507 22.3317 82.4075 22.3316C81.9469 22.3314 81.4864 22.3314 81.0259 22.3316C80.9948 22.3316 80.9637 22.3337 80.9327 22.3352C80.9216 22.3357 80.8979 22.3616 80.8974 22.3736C80.8957 22.4108 80.8923 22.448 80.8923 22.4852C80.892 23.3507 80.892 24.2162 80.8922 25.0817C80.8922 25.1128 80.8949 25.1438 80.896 25.1749C80.8965 25.187 80.9195 25.2133 80.9301 25.2143C80.9425 25.2154 80.9549 25.2175 80.9673 25.2174C81.21 25.216 81.4528 25.2181 81.6953 25.2115C81.9201 25.2054 82.1403 25.1639 82.3555 25.0986C82.535 25.044 82.7039 24.966 82.8586 24.8587C83.1661 24.6452 83.3487 24.3528 83.4102 23.984C83.4152 23.9534 83.417 23.9217 83.4266 23.8926C83.4316 23.8775 83.4484 23.8594 83.4632 23.8557C83.5178 23.8418 83.5742 23.8414 83.6288 23.8566C83.6452 23.8612 83.6614 23.8738 83.6616 23.8968C83.6618 23.9341 83.6644 23.9714 83.6644 24.0087C83.6645 24.9489 83.6645 25.8891 83.6644 26.8293C83.6644 26.8728 83.6639 26.9165 83.6596 26.9598C83.6579 26.9766 83.6479 26.9949 83.6255 26.9981C83.5699 27.0059 83.5142 27.0092 83.4593 26.9953C83.4492 26.9928 83.4365 26.9811 83.4341 26.9714C83.4252 26.9356 83.4173 26.899 83.4141 26.8623C83.403 26.7311 83.3724 26.6042 83.3305 26.4802C83.2113 26.1275 82.9862 25.8656 82.6535 25.6961C82.48 25.6077 82.2959 25.5522 82.106 25.5162C81.9471 25.486 81.7863 25.4675 81.6238 25.468C81.3998 25.4686 81.1758 25.4682 80.9518 25.4688C80.9164 25.4689 80.896 25.4907 80.8942 25.5264C80.8933 25.545 80.8925 25.5637 80.8923 25.5823C80.8919 25.6135 80.892 25.6446 80.892 25.6757C80.892 26.4852 80.8919 27.2946 80.8921 28.1041C80.8921 28.1663 80.8928 28.2287 80.8962 28.2908C80.8983 28.3279 80.9025 28.3657 80.9123 28.4014C80.9313 28.4711 80.9724 28.5244 81.0442 28.5468C81.0795 28.5578 81.1158 28.5676 81.1524 28.5724C81.1893 28.5772 81.227 28.576 81.2643 28.576C81.6253 28.5756 81.9862 28.5756 82.3471 28.5739C82.5841 28.5729 82.8188 28.5467 83.0519 28.504C83.4424 28.4324 83.7803 28.2567 84.0652 27.982C84.1725 27.8786 84.2725 27.7668 84.369 27.653C84.5342 27.4583 84.6835 27.2512 84.8295 27.0417C84.8614 26.9958 84.894 26.9504 84.9285 26.9064C84.9397 26.8921 84.9599 26.8825 84.9781 26.8919C85.0222 26.9145 85.066 26.9381 85.1071 26.9656C85.1197 26.974 85.1287 26.9962 85.1294 27.0125C85.1304 27.0368 85.1248 27.0621 85.1183 27.0858C84.9703 27.6322 84.822 28.1784 84.6732 28.7246C84.6667 28.7485 84.6582 28.7721 84.6475 28.7944C84.6398 28.8106 84.6288 28.8271 84.607 28.8276C84.5449 28.8291 84.4828 28.8314 84.4206 28.8314C83.5307 28.8317 82.6407 28.8316 81.7508 28.8316L81.7508 28.8317Z" fill="#1E3D71"/>
<path d="M74.1648 22.0697C75.0609 22.0697 75.9571 22.0697 76.8532 22.0698C76.9092 22.0698 76.9652 22.0703 77.0211 22.0721C77.0479 22.0729 77.068 22.0885 77.0789 22.1122C77.0946 22.146 77.1087 22.1806 77.1218 22.2155C77.3053 22.7047 77.4887 23.1939 77.6719 23.6833C77.6806 23.7065 77.6896 23.7298 77.6949 23.7539C77.6973 23.7643 77.6943 23.7795 77.6877 23.7877C77.6581 23.8245 77.6156 23.8338 77.5712 23.8333C77.5605 23.8332 77.5473 23.8246 77.5398 23.8159C77.5237 23.7972 77.5098 23.7764 77.4964 23.7555C77.1583 23.2281 76.6846 22.8696 76.1066 22.6433C75.8162 22.5296 75.5146 22.4569 75.2069 22.405C74.7687 22.3312 74.3276 22.328 73.8856 22.3322C73.8039 22.333 73.7245 22.3465 73.6477 22.3741C73.597 22.3923 73.5652 22.4296 73.5536 22.4814C73.5455 22.5177 73.5409 22.5551 73.539 22.5923C73.5363 22.6419 73.5373 22.6918 73.5373 22.7417C73.5373 23.5138 73.5372 24.2859 73.5375 25.0579C73.5375 25.1139 73.5398 25.1699 73.544 25.2257C73.5447 25.2346 73.5597 25.2468 73.5702 25.2498C73.5878 25.2549 73.6071 25.2551 73.6256 25.255C73.8559 25.2537 74.0862 25.2559 74.3163 25.2496C74.6285 25.241 74.9359 25.1962 75.2343 25.1015C75.3289 25.0716 75.4213 25.0339 75.5122 24.994C75.7383 24.8948 75.8996 24.7272 76.0084 24.5078C76.0893 24.3446 76.1334 24.17 76.1596 23.9905C76.1641 23.9597 76.1672 23.9286 76.1747 23.8986C76.1771 23.8887 76.1912 23.8751 76.2004 23.8747C76.2559 23.8721 76.3116 23.8718 76.3671 23.8741C76.3748 23.8744 76.3852 23.8916 76.3881 23.9026C76.3927 23.9204 76.3936 23.9395 76.3936 23.9581C76.3938 24.8859 76.3939 25.8136 76.3937 26.7414C76.3937 26.7599 76.393 26.779 76.3883 26.7966C76.3855 26.8072 76.3756 26.8218 76.3663 26.824C76.3113 26.8368 76.2553 26.8378 76.2002 26.8241C76.1895 26.8214 76.1768 26.8114 76.1724 26.8014C76.165 26.7847 76.1633 26.7654 76.1596 26.7471C76.1297 26.6005 76.0916 26.4566 76.0275 26.3204C75.9294 26.1118 75.7876 25.9426 75.5858 25.8286C75.5211 25.7921 75.4522 25.7622 75.3831 25.7345C75.2033 25.6624 75.0159 25.6176 74.8252 25.5874C74.5111 25.5375 74.1949 25.5152 73.877 25.5173C73.7836 25.5179 73.6903 25.5182 73.597 25.5193C73.5658 25.5197 73.5398 25.5463 73.539 25.5789C73.5377 25.6287 73.5373 25.6785 73.5373 25.7283C73.5372 26.4008 73.5368 27.0732 73.5376 27.7457C73.5377 27.8452 73.5433 27.9448 73.5464 28.0443C73.5488 28.1198 73.5666 28.1927 73.5911 28.2632C73.6349 28.389 73.7195 28.4752 73.8513 28.5074C73.9055 28.5207 73.9607 28.5322 74.0161 28.5371C74.1772 28.5512 74.3386 28.5616 74.4999 28.5736C74.5122 28.5746 74.5244 28.5772 74.5368 28.5782C74.5584 28.58 74.573 28.5953 74.576 28.6123C74.5869 28.6738 74.5887 28.7362 74.5733 28.7973C74.5707 28.8077 74.5587 28.818 74.5484 28.8235C74.5379 28.8291 74.5243 28.8301 74.512 28.8304C74.4685 28.8315 74.4249 28.8317 74.3814 28.8317C73.3981 28.8317 72.4148 28.8318 71.4315 28.8315C71.3818 28.8315 71.3321 28.8299 71.2824 28.8281C71.2581 28.8272 71.2367 28.8046 71.2361 28.779C71.2351 28.7294 71.2347 28.6796 71.2356 28.6299C71.2361 28.597 71.2591 28.5774 71.2977 28.5764C71.3661 28.5745 71.4348 28.5766 71.503 28.5717C71.6021 28.5645 71.7013 28.5555 71.7997 28.5422C71.9949 28.5156 72.1134 28.3994 72.1597 28.2122C72.1805 28.1282 72.188 28.0405 72.196 27.9539C72.2017 27.8921 72.1986 27.8295 72.1986 27.7672C72.1987 26.223 72.1987 24.6788 72.1986 23.1346C72.1986 22.9852 72.2016 22.8353 72.1681 22.6884C72.1571 22.6401 72.1448 22.5909 72.1239 22.5465C72.0821 22.4578 72.0125 22.3953 71.9157 22.374C71.8371 22.3567 71.7565 22.3448 71.6762 22.3397C71.5645 22.3325 71.4522 22.3341 71.3403 22.3313C71.3156 22.3307 71.2905 22.3294 71.2665 22.324C71.2565 22.3218 71.2463 22.3095 71.241 22.2993C71.2356 22.2887 71.2342 22.2752 71.2342 22.2629C71.234 22.0591 71.2068 22.0697 71.4201 22.0697C72.3349 22.0699 73.2497 22.0698 74.1645 22.0698L74.1648 22.0697Z" fill="#1E3D71"/>
<path d="M34.7561 25.2796C34.7561 26.1014 34.7567 26.9232 34.7555 27.745C34.7553 27.87 34.7661 27.9936 34.7805 28.1173C34.7885 28.186 34.8092 28.2511 34.8342 28.3148C34.868 28.4009 34.9294 28.4614 35.0168 28.4898C35.0816 28.5108 35.1485 28.5267 35.2157 28.5382C35.3631 28.5634 35.5119 28.5757 35.6616 28.5747C35.6927 28.5745 35.7238 28.5761 35.7549 28.5778C35.7773 28.579 35.7986 28.603 35.799 28.6289C35.7998 28.6785 35.7996 28.7282 35.7987 28.7779C35.7984 28.7997 35.7723 28.8279 35.7527 28.8287C35.7154 28.8302 35.6781 28.8315 35.6408 28.8315C34.5954 28.8316 33.55 28.8316 32.5046 28.8315C32.4673 28.8315 32.4297 28.8318 32.3928 28.8276C32.3758 28.8256 32.358 28.8146 32.3542 28.7934C32.3432 28.7316 32.3433 28.6696 32.355 28.6081C32.3568 28.5984 32.3699 28.5847 32.3791 28.5836C32.4219 28.5785 32.4651 28.5756 32.5083 28.575C32.6639 28.5726 32.8195 28.572 32.9733 28.5432C32.9977 28.5387 33.023 28.5378 33.0469 28.5312C33.1878 28.4923 33.2899 28.4097 33.3386 28.2679C33.3733 28.1669 33.3872 28.0622 33.3925 27.9564C33.3958 27.8881 33.3948 27.8195 33.3948 27.751C33.3949 26.1136 33.395 24.4761 33.3947 22.8387C33.3947 22.7578 33.3917 22.6769 33.3888 22.5961C33.3881 22.5776 33.3821 22.5594 33.3784 22.5411C33.3491 22.3969 33.2964 22.3446 33.1559 22.3358C33.0131 22.3268 32.8702 22.3295 32.7278 22.3516C32.3441 22.4112 32.003 22.5668 31.696 22.8019C31.3509 23.0663 31.0684 23.3861 30.847 23.7602C30.8184 23.8083 30.7913 23.8573 30.7628 23.9055C30.7397 23.9447 30.7175 23.9542 30.669 23.9426C30.6329 23.934 30.5975 23.9222 30.562 23.9108C30.5382 23.9032 30.5259 23.8787 30.5306 23.8518C30.5316 23.8456 30.532 23.8394 30.5333 23.8333C30.6577 23.2429 30.782 22.6525 30.907 22.0622C30.9147 22.0258 30.9266 21.9902 30.9393 21.9552C30.9427 21.9458 30.9563 21.9342 30.9656 21.9339C31.0586 21.9309 31.1518 21.9282 31.2448 21.9296C31.2677 21.93 31.2932 21.9417 31.3128 21.9551C31.4307 22.0361 31.5664 22.0539 31.7031 22.0653C31.7712 22.0711 31.8399 22.0694 31.9084 22.0694C33.3396 22.0696 34.7708 22.0696 36.202 22.0694C36.3451 22.0694 36.488 22.0692 36.6296 22.0412C36.7039 22.0265 36.7753 22.0077 36.8358 21.9606C36.8669 21.9364 36.9004 21.926 36.9394 21.9267C37.0202 21.9282 37.1011 21.9275 37.1819 21.9289C37.215 21.9294 37.2367 21.9501 37.2441 21.986C37.3052 22.2846 37.3663 22.5832 37.4268 22.8819C37.4886 23.1868 37.5498 23.4917 37.611 23.7966C37.6147 23.8149 37.6168 23.8335 37.6194 23.852C37.6234 23.8791 37.6109 23.9035 37.5874 23.911C37.552 23.9223 37.5165 23.9337 37.4804 23.9426C37.4414 23.9523 37.4078 23.9456 37.3844 23.9072C37.3522 23.8541 37.3178 23.8022 37.2837 23.7501C37.1059 23.4784 36.9064 23.2244 36.6701 23.0006C36.4329 22.7759 36.1687 22.5933 35.8631 22.4728C35.5866 22.3639 35.3006 22.318 35.0045 22.3328C34.9546 22.3352 34.9054 22.3396 34.8594 22.3627C34.8242 22.3803 34.795 22.4054 34.7873 22.4432C34.7736 22.51 34.7634 22.5778 34.7575 22.6458C34.7526 22.7014 34.7562 22.7577 34.7562 22.8138C34.7562 23.6356 34.7562 24.4574 34.7562 25.2792L34.7561 25.2796Z" fill="#1E3D71"/>
<path d="M28.6958 24.9727C28.6958 24.3936 28.6956 23.8146 28.696 23.2355C28.696 23.1045 28.693 22.9738 28.6588 22.8463C28.6443 22.7923 28.6293 22.738 28.6078 22.6866C28.5549 22.5602 28.4636 22.4695 28.3366 22.4179C28.2087 22.366 28.0747 22.3395 27.9368 22.3339C27.856 22.3306 27.7751 22.33 27.6945 22.3243C27.6806 22.3234 27.6575 22.3039 27.6567 22.2918C27.6524 22.2301 27.6521 22.1678 27.6556 22.1061C27.6562 22.0946 27.6794 22.0788 27.6947 22.0748C27.7183 22.0687 27.744 22.07 27.7689 22.07C28.4534 22.0698 29.138 22.0698 29.8225 22.07C29.8473 22.07 29.8726 22.0708 29.8967 22.0756C29.907 22.0777 29.9215 22.0901 29.923 22.0996C29.9336 22.1675 29.9353 22.236 29.9215 22.3037C29.9195 22.3129 29.9042 22.3248 29.8939 22.3261C29.8569 22.3308 29.8195 22.3331 29.7822 22.3334C29.6882 22.334 29.5964 22.3502 29.5056 22.3721C29.4634 22.3823 29.422 22.3963 29.3814 22.4114C29.2501 22.4603 29.1642 22.5536 29.1216 22.686C29.0929 22.775 29.0712 22.8659 29.0682 22.96C29.0654 23.0533 29.0627 23.1467 29.0627 23.2401C29.0622 24.3484 29.0622 25.4568 29.0625 26.5651C29.0625 26.7271 29.0581 26.8884 29.0373 27.0496C29.019 27.1923 28.9905 27.3321 28.9469 27.4686C28.8476 27.779 28.6702 28.0372 28.4214 28.2472C28.1953 28.4379 27.9392 28.5769 27.6651 28.6835C27.4326 28.7739 27.1913 28.8325 26.9459 28.8768C26.5148 28.9545 26.0798 28.9611 25.6438 28.955C25.3006 28.9503 24.9613 28.9118 24.6259 28.8384C24.3576 28.7798 24.0982 28.6949 23.8532 28.5693C23.6639 28.4723 23.4897 28.3537 23.3354 28.2063C23.0673 27.9503 22.8931 27.6395 22.793 27.2846C22.7267 27.0495 22.6994 26.8088 22.6897 26.5656C22.6868 26.491 22.6885 26.4162 22.6885 26.3415C22.6885 25.3266 22.6887 24.3116 22.6882 23.2967C22.6882 23.1908 22.6842 23.085 22.6827 22.9792C22.6814 22.8912 22.661 22.8064 22.6407 22.7217C22.5976 22.5414 22.4816 22.4295 22.3065 22.3792C22.2231 22.3553 22.1381 22.3344 22.0499 22.3337C22.0189 22.3335 21.988 22.3303 21.957 22.3277C21.9352 22.3259 21.9125 22.3008 21.912 22.2765C21.9109 22.2269 21.9103 22.1771 21.911 22.1274C21.9114 22.0946 21.9363 22.0718 21.9715 22.0708C22.015 22.0697 22.0586 22.0697 22.1021 22.0697C22.9983 22.0697 23.8945 22.0696 24.7906 22.0699C24.8465 22.0699 24.9024 22.0727 24.9581 22.0767C24.9682 22.0775 24.984 22.09 24.9856 22.0992C24.9976 22.1668 24.9991 22.2352 24.9844 22.3026C24.9824 22.3119 24.9668 22.324 24.9566 22.3249C24.8575 22.3331 24.7581 22.3383 24.659 22.3462C24.5784 22.3527 24.4979 22.3604 24.4177 22.3704C24.381 22.375 24.345 22.3858 24.3089 22.3946C24.1726 22.4278 24.0962 22.5191 24.07 22.6523C24.052 22.7437 24.0394 22.8365 24.0317 22.9293C24.025 23.0098 24.0276 23.0911 24.0276 23.172C24.0274 24.2119 24.028 25.2517 24.0271 26.2916C24.0269 26.516 24.0344 26.7397 24.0648 26.9623C24.0978 27.2036 24.1526 27.439 24.248 27.6644C24.4113 28.0499 24.6864 28.3239 25.0682 28.4913C25.2456 28.5691 25.4317 28.6184 25.6227 28.6502C25.9377 28.7026 26.2551 28.7083 26.5719 28.6832C26.9087 28.6564 27.2337 28.5743 27.5431 28.4348C27.8195 28.31 28.058 28.1341 28.2602 27.9086C28.5326 27.6048 28.672 27.2463 28.6931 26.8406C28.6973 26.7598 28.6959 26.6787 28.6959 26.5978C28.6961 26.0561 28.696 25.5143 28.696 24.9726H28.6958L28.6958 24.9727Z" fill="#1E3D71"/>
<path d="M12.3018 22.0697C12.781 22.0697 13.2601 22.0696 13.7392 22.07C13.7826 22.07 13.8262 22.0728 13.8693 22.0774C13.8789 22.0785 13.8937 22.0929 13.8945 22.1022C13.8986 22.1517 13.9005 22.2015 13.9004 22.2511C13.9003 22.3105 13.8828 22.3273 13.8226 22.3292C13.7355 22.3317 13.6484 22.3342 13.5613 22.3353C13.4734 22.3364 13.3878 22.3546 13.3041 22.3774C13.251 22.3918 13.1992 22.4171 13.1521 22.446C13.0805 22.49 13.0352 22.5584 13.0143 22.6391C12.9925 22.7233 12.9735 22.8087 12.9717 22.8965C12.9697 22.9899 12.9659 23.0832 12.9659 23.1766C12.9656 24.6894 12.9656 26.2023 12.9659 27.7152C12.9659 27.8085 12.9698 27.9019 12.9719 27.9952C12.9739 28.0831 12.9956 28.1678 13.0162 28.2523C13.0249 28.2882 13.0403 28.3231 13.057 28.3563C13.0857 28.4136 13.1294 28.4573 13.189 28.483C13.252 28.5101 13.317 28.5296 13.3852 28.5404C13.5083 28.5598 13.6315 28.5753 13.7564 28.5744C13.7874 28.5742 13.8185 28.5765 13.8495 28.5782C13.8742 28.5796 13.8974 28.6015 13.8979 28.6247C13.899 28.6744 13.8999 28.7241 13.8992 28.7738C13.8988 28.807 13.8747 28.8286 13.8381 28.8297C13.7946 28.8311 13.7511 28.8315 13.7076 28.8315C12.7618 28.8316 11.8159 28.8317 10.8701 28.8314C10.8206 28.8314 10.7709 28.8293 10.7216 28.8253C10.7118 28.8245 10.6973 28.8122 10.6947 28.8026C10.6766 28.7353 10.6803 28.6671 10.6928 28.5994C10.6945 28.5906 10.7108 28.5794 10.7215 28.5782C10.7584 28.5736 10.796 28.5738 10.8331 28.5708C10.9695 28.5597 11.1062 28.5506 11.2422 28.5362C11.3997 28.5195 11.5031 28.4312 11.5593 28.2842C11.5999 28.1779 11.6071 28.0659 11.6169 27.9545C11.6213 27.905 11.6192 27.855 11.6192 27.8051C11.6193 26.286 11.6191 24.7669 11.6197 23.2479C11.6197 23.092 11.6135 22.9366 11.5915 22.7823C11.5836 22.7272 11.5712 22.6723 11.5559 22.6187C11.5206 22.4955 11.4369 22.4166 11.3179 22.3757C11.2412 22.3494 11.1617 22.3341 11.08 22.3328C10.9681 22.331 10.8561 22.3291 10.7441 22.3268C10.7116 22.3261 10.6866 22.3013 10.6855 22.2685C10.6845 22.2374 10.6837 22.2063 10.6845 22.1752C10.6851 22.1504 10.6861 22.1252 10.6915 22.1011C10.6936 22.0914 10.707 22.0781 10.7163 22.0771C10.7593 22.0726 10.8026 22.0699 10.8458 22.0699C11.3312 22.0694 11.8165 22.0696 12.3018 22.0696V22.0697Z" fill="#1E3D71"/>
<path d="M68.6213 22.0697C69.0942 22.0697 69.5672 22.0696 70.0402 22.07C70.0899 22.07 70.1397 22.0721 70.1892 22.076C70.1994 22.0768 70.2155 22.089 70.2171 22.0981C70.2286 22.1658 70.2304 22.2342 70.2157 22.3018C70.2136 22.3111 70.198 22.3235 70.188 22.3241C70.1198 22.3282 70.0514 22.3308 69.983 22.3316C69.8705 22.3329 69.7592 22.3429 69.6503 22.3717C69.6144 22.3812 69.5789 22.3933 69.5447 22.4077C69.4338 22.4544 69.3635 22.5383 69.3355 22.6541C69.3135 22.7447 69.295 22.8365 69.2937 22.9306C69.2925 23.0116 69.2898 23.0925 69.2898 23.1734C69.2895 24.6928 69.2895 26.2121 69.2897 27.7314C69.2897 27.8808 69.2874 28.0306 69.3238 28.1772C69.3358 28.2253 69.3486 28.2735 69.3655 28.3201C69.397 28.4072 69.4587 28.4669 69.5458 28.4968C69.5986 28.5148 69.6531 28.529 69.708 28.5391C69.8305 28.5616 69.9541 28.5756 70.079 28.5745C70.1101 28.5741 70.1412 28.5763 70.1722 28.5778C70.1975 28.5791 70.2207 28.6002 70.2212 28.6233C70.2225 28.673 70.2236 28.7228 70.2232 28.7725C70.223 28.8057 70.1987 28.8286 70.1637 28.8296C70.1201 28.831 70.0766 28.8316 70.0331 28.8316C69.0871 28.8317 68.1411 28.8317 67.1952 28.8316C67.1516 28.8316 67.1081 28.8306 67.0646 28.8294C67.0329 28.8285 67.0093 28.8035 67.0091 28.7688C67.0089 28.7191 67.0111 28.6694 67.0113 28.6197C67.0114 28.5967 67.0279 28.584 67.0438 28.5794C67.0672 28.5725 67.0931 28.5745 67.1178 28.5725C67.2605 28.5614 67.4031 28.5495 67.5458 28.5393C67.7236 28.5267 67.8491 28.4256 67.9016 28.2343C67.9262 28.1447 67.9417 28.0519 67.9416 27.9577C67.9416 27.8892 67.9433 27.8208 67.9433 27.7523C67.9434 26.2641 67.9434 24.7759 67.9433 23.2877C67.9433 23.107 67.9443 22.9263 67.9116 22.7477C67.9027 22.699 67.8914 22.6502 67.8759 22.6032C67.8382 22.4886 67.757 22.4151 67.6451 22.3764C67.5625 22.3478 67.4765 22.3333 67.3886 22.332C67.2766 22.3303 67.1646 22.3288 67.0527 22.3249C67.0356 22.3243 67.0155 22.3118 67.0147 22.291C67.0125 22.2291 67.0112 22.1671 67.0147 22.1053C67.0154 22.0938 67.039 22.0754 67.0532 22.0742C67.1089 22.0697 67.165 22.0699 67.221 22.0699C67.6878 22.0696 68.1545 22.0697 68.6213 22.0697H68.6213Z" fill="#1E3D71"/>
<path d="M55.1553 5.00433C55.0633 4.69851 54.8788 4.4658 54.5935 4.31493C54.1911 4.10213 53.7617 3.98356 53.3091 3.95746C52.862 3.93165 52.4144 3.91886 51.9657 3.93831C51.5109 3.95806 51.0611 4.01626 50.6117 4.08137C50.347 4.11971 50.0835 4.16577 49.8193 4.20654C49.4996 4.25587 49.1818 4.31488 48.8653 4.38185C48.3543 4.48999 47.8459 4.60972 47.3396 4.73802C46.6404 4.91514 45.944 5.10335 45.2585 5.3285C44.5438 5.56317 43.8303 5.80193 43.1172 6.04164C42.3864 6.28724 41.6564 6.53542 40.9266 6.78375C40.2259 7.02215 39.534 7.28424 38.8469 7.55937C38.8009 7.57782 38.7543 7.5954 38.7073 7.61107C38.6973 7.6144 38.681 7.61128 38.6732 7.60457C38.6681 7.60029 38.6689 7.57998 38.6746 7.57384C38.7126 7.53272 38.7517 7.4926 38.792 7.4537C39.5049 6.76294 40.2778 6.14721 41.1051 5.59925C41.4997 5.33797 41.9094 5.10204 42.32 4.86747C43.0548 4.44766 43.8032 4.0533 44.5645 3.68388C45.5617 3.20007 46.5873 2.78591 47.6329 2.41921C48.5143 2.11016 49.4083 1.84782 50.3229 1.65699C50.3592 1.64938 50.3948 1.63784 50.4298 1.62535C50.4395 1.62187 50.4509 1.60917 50.4524 1.59935C50.4579 1.56276 50.4616 1.52562 50.4624 1.48864C50.4721 1.03416 50.4811 0.579729 50.4903 0.12525C50.4905 0.112803 50.4909 0.100357 50.4906 0.0879099C50.4904 0.0754632 50.4894 0.063067 50.4888 0.0506203C50.487 0.0147922 50.4625 -0.00581788 50.4271 0.000329853C50.2493 0.0310181 50.0716 0.0612529 49.8941 0.093201C49.2262 0.213334 48.5682 0.374485 47.9197 0.57348C47.0212 0.849171 46.1418 1.17681 45.2777 1.54633C44.6369 1.82041 44.0103 2.12392 43.3889 2.43922C42.2948 2.99428 41.2318 3.60285 40.2046 4.27371C39.9338 4.45058 39.6621 4.62726 39.4015 4.81864C38.794 5.26486 38.2183 5.75028 37.6675 6.26527C36.8986 6.98416 36.2436 7.7948 35.7004 8.6963C35.6779 8.73359 35.6561 8.77133 35.6334 8.80852C35.6134 8.84128 35.5861 8.86506 35.5495 8.87897C35.1944 9.01361 34.8516 9.17613 34.5073 9.33546C33.6605 9.72726 32.8186 10.129 31.9887 10.5556C31.5406 10.7859 31.0955 11.022 30.647 11.2517C29.7438 11.7144 28.865 12.2195 28.0103 12.7668C27.9632 12.7969 27.9167 12.8281 27.8711 12.8605C27.8405 12.8823 27.8495 12.9382 27.8845 12.9537C27.9198 12.9692 27.9569 12.9769 27.9933 12.963C28.0745 12.9319 28.1563 12.9016 28.2347 12.8643C28.3919 12.7893 28.547 12.7099 28.703 12.6324C29.8061 12.0846 30.9212 11.5623 32.0386 11.0446C32.9416 10.6262 33.852 10.2248 34.7673 9.83459C34.9616 9.75175 35.1615 9.68185 35.359 9.60662C35.388 9.59558 35.4183 9.58762 35.4481 9.57895C35.4821 9.56908 35.5027 9.58979 35.4988 9.63151C35.4937 9.6873 35.4895 9.74333 35.4808 9.79861C35.4287 10.1313 35.4024 10.4669 35.3914 10.8025C35.3761 11.2691 35.3739 11.736 35.4076 12.2027C35.4332 12.5576 35.4895 12.9069 35.5666 13.2537C35.5857 13.3396 35.616 13.4204 35.655 13.4987C35.8038 13.7981 36.0048 14.0567 36.258 14.2751C36.3048 14.3154 36.3598 14.3477 36.39 14.405C36.4557 14.482 36.5473 14.4714 36.6324 14.4715C38.1863 14.4736 39.74 14.4735 41.2939 14.4716C41.3792 14.4715 41.4704 14.4817 41.5374 14.407C41.5881 14.3692 41.647 14.3521 41.7071 14.3351C42.2758 14.1744 42.8369 13.9902 43.3882 13.7768C43.6897 13.6601 43.9876 13.5342 44.2887 13.4161C45.0185 13.1298 45.7354 12.8141 46.4407 12.4718C46.5302 12.4284 46.6206 12.3868 46.7115 12.3463C47.4051 12.0371 48.0838 11.6986 48.7429 11.3211C48.9751 11.1882 49.206 11.0532 49.439 10.9216C50.0622 10.5694 50.672 10.1955 51.2665 9.79659C51.6749 9.52257 52.0714 9.23201 52.4694 8.94327C53.1727 8.43291 53.8116 7.8526 54.3861 7.20074C54.8213 6.7068 55.0913 6.13663 55.1894 5.48396C55.2142 5.31933 55.2025 5.16024 55.1555 5.00433H55.1553ZM53.7261 6.04804C53.5377 6.35195 53.3104 6.62265 53.043 6.85964C52.6187 7.23576 52.1752 7.58774 51.7116 7.91428C51.6403 7.96442 51.5694 8.01501 51.4987 8.06596C51.2204 8.26666 50.9278 8.44334 50.6177 8.59053C50.5842 8.6065 50.5494 8.62021 50.515 8.63427C50.4979 8.64122 50.4734 8.62812 50.4729 8.61215C50.471 8.55626 50.4684 8.50038 50.4682 8.4445C50.4655 7.90269 50.4633 7.36088 50.4608 6.81902C50.4606 6.78173 50.4597 6.74429 50.4556 6.70731C50.4548 6.70015 50.4347 6.6875 50.4282 6.68992C50.3994 6.7006 50.3712 6.71386 50.3449 6.72988C50.0797 6.89249 49.816 7.05773 49.5497 7.21848C48.8198 7.65915 48.0765 8.07624 47.3223 8.47387C47.0362 8.62475 46.754 8.78328 46.4675 8.93329C45.5957 9.38953 44.6978 9.78747 43.7769 10.1342C43.5675 10.2131 43.3614 10.3009 43.1532 10.3831C42.5855 10.6072 42.0041 10.7885 41.4122 10.937C41.2192 10.9854 41.0277 11.04 40.834 11.0852C40.4582 11.1729 40.0788 11.2394 39.6951 11.2843C39.268 11.3344 38.8402 11.3665 38.4103 11.3629C38.1428 11.3606 37.8753 11.3531 37.6095 11.3148C37.3362 11.2754 37.0769 11.1932 36.8283 11.0739C36.6233 10.9755 36.5203 10.8107 36.5036 10.5878C36.5003 10.5445 36.5031 10.5007 36.5031 10.4571C36.4968 10.2475 36.5451 10.0491 36.6403 9.86351C36.7284 9.69193 36.8223 9.52327 36.9306 9.36323C37.0814 9.1404 37.258 8.94019 37.4537 8.75601C37.5182 8.69529 37.5892 8.64999 37.6722 8.61774C38.1012 8.4512 38.5276 8.27785 38.9576 8.11383C40.2245 7.63053 41.505 7.18628 42.7985 6.77911C43.2611 6.63353 43.7202 6.47667 44.1819 6.32862C45.4375 5.92609 46.7025 5.55561 47.976 5.21386C48.4506 5.08652 48.9265 4.96528 49.4074 4.86415C49.7848 4.78473 50.1635 4.71247 50.545 4.65553C50.7603 4.62338 50.9751 4.58558 51.1914 4.56265C51.4637 4.53383 51.7375 4.51695 52.0116 4.52829C52.2415 4.53781 52.4713 4.54784 52.7002 4.57848C52.9933 4.61768 53.2698 4.70632 53.5337 4.83643C53.7034 4.92008 53.8178 5.05568 53.8844 5.23175C53.9156 5.31419 53.9265 5.39839 53.9174 5.48794C53.8967 5.69021 53.8328 5.87555 53.726 6.04799L53.7261 6.04804Z" fill="#008060"/>
<path d="M45.4175 28.5777C45.399 28.5755 45.3804 28.574 45.3619 28.5721C45.2505 28.5606 45.1391 28.5497 45.0278 28.5372C44.8785 28.5205 44.7549 28.4548 44.6608 28.3372C44.6142 28.2789 44.5686 28.2195 44.5274 28.1573C44.4379 28.0225 44.3486 27.8874 44.2643 27.7494C43.8721 27.1065 43.4817 26.4625 43.0904 25.8191C43.0645 25.7765 43.0369 25.7351 43.0095 25.6935C42.9434 25.5931 42.862 25.509 42.7534 25.454C42.7423 25.4484 42.7297 25.4433 42.7221 25.4343C42.7155 25.4266 42.7137 25.4139 42.7126 25.4031C42.7123 25.3999 42.7213 25.3934 42.7268 25.3924C42.8061 25.3774 42.8862 25.3663 42.9647 25.3482C43.2461 25.2835 43.5071 25.1685 43.7542 25.0209C43.7968 24.9954 43.8372 24.9656 43.8759 24.9345C44.0303 24.8103 44.1387 24.6541 44.1985 24.4643C44.2362 24.3447 44.2538 24.2221 44.2589 24.0971C44.2646 23.9594 44.2486 23.8228 44.2247 23.6883C44.1664 23.3613 44.0281 23.0743 43.7871 22.8399C43.6614 22.7176 43.5239 22.6117 43.3739 22.5216C43.1371 22.3793 42.8815 22.2842 42.6127 22.2241C42.1556 22.1218 41.6928 22.0702 41.2243 22.07C40.8135 22.0699 40.4027 22.07 39.9918 22.07V22.0699C39.4814 22.0699 38.9711 22.0697 38.4606 22.0701C38.4047 22.0701 38.3487 22.0724 38.293 22.0763C38.2829 22.077 38.2669 22.0892 38.2652 22.0982C38.2521 22.1659 38.2521 22.2342 38.2655 22.3018C38.2673 22.3112 38.2824 22.3239 38.2924 22.3249C38.3418 22.3297 38.3916 22.3331 38.4412 22.3333C38.5477 22.3338 38.6517 22.3515 38.7556 22.3725C38.9111 22.4038 39.0139 22.4897 39.0452 22.6497C39.0584 22.7167 39.0745 22.784 39.0788 22.8517C39.0869 22.9759 39.0906 23.1006 39.0906 23.2251C39.0914 24.7011 39.0914 26.1771 39.0906 27.6531C39.0905 27.79 39.0858 27.9271 39.0775 28.0637C39.0734 28.1316 39.0565 28.1986 39.0454 28.2661C39.0199 28.4216 38.924 28.5054 38.7735 28.5336C38.7551 28.5371 38.7365 28.539 38.7182 28.5428C38.6141 28.5641 38.509 28.5735 38.4029 28.5744C38.3656 28.5747 38.3283 28.5771 38.2914 28.582C38.2813 28.5833 38.268 28.5953 38.2645 28.6053C38.2586 28.6225 38.2575 28.6419 38.2574 28.6605C38.2565 28.8357 38.243 28.832 38.4302 28.8319C39.3576 28.8315 40.2851 28.8317 41.2126 28.8317C41.2437 28.8317 41.2748 28.8317 41.3059 28.8306C41.3182 28.8302 41.3318 28.8295 41.3422 28.8241C41.3525 28.8188 41.3646 28.8087 41.3674 28.7984C41.3842 28.7373 41.3826 28.675 41.3696 28.6138C41.3661 28.5975 41.3523 28.5809 41.3299 28.5804C41.2615 28.5786 41.1932 28.5747 41.1248 28.5748C41.0182 28.5751 40.9134 28.5598 40.8104 28.5359C40.7505 28.522 40.6915 28.4992 40.6362 28.4721C40.541 28.4254 40.4848 28.3454 40.4635 28.2415C40.4586 28.2172 40.4564 28.1922 40.4531 28.1676C40.4344 28.0316 40.4278 27.895 40.428 27.7578C40.4289 27.0851 40.4283 26.4126 40.4284 25.74C40.4284 25.6964 40.429 25.6528 40.4304 25.6092C40.4315 25.5732 40.453 25.5497 40.4869 25.549C40.5615 25.5475 40.6361 25.5469 40.7108 25.5469C40.8789 25.5468 41.047 25.5442 41.215 25.5484C41.3923 25.5527 41.5411 25.6244 41.6542 25.7615C41.7055 25.8237 41.7518 25.8909 41.7935 25.96C41.848 26.0505 41.8978 26.144 41.9461 26.2381C42.3549 27.0354 42.7629 27.8332 43.1713 28.6306C43.1996 28.686 43.229 28.7409 43.2587 28.7955C43.2716 28.8193 43.2937 28.8293 43.3201 28.8298C43.3699 28.8307 43.4197 28.8316 43.4694 28.8316C44.0607 28.8317 44.6521 28.8317 45.2434 28.8316C45.2932 28.8316 45.343 28.8315 45.3927 28.8305C45.4048 28.8302 45.4181 28.8284 45.4285 28.8228C45.4386 28.8174 45.4524 28.8066 45.4528 28.7976C45.4558 28.7358 45.4575 28.6737 45.4553 28.612C45.4547 28.5951 45.4378 28.5802 45.4172 28.5776L45.4175 28.5777ZM42.0212 25.1336C41.856 25.1893 41.6846 25.22 41.5128 25.2481C41.2852 25.2854 41.055 25.2913 40.8257 25.3082C40.7886 25.3109 40.7511 25.3104 40.714 25.3081C40.6397 25.3034 40.5655 25.2963 40.4912 25.2905C40.4542 25.2876 40.4314 25.268 40.4307 25.235C40.4293 25.179 40.4287 25.1231 40.4287 25.0671C40.4285 24.6503 40.4286 24.2336 40.4286 23.8168C40.4286 23.3937 40.4285 22.9708 40.4287 22.5477C40.4287 22.4918 40.4305 22.4358 40.4324 22.38C40.4331 22.357 40.457 22.3364 40.4826 22.3346C40.5012 22.3333 40.5198 22.3316 40.5384 22.3318C40.7933 22.3349 41.0483 22.333 41.303 22.3432C41.4827 22.3504 41.6624 22.3655 41.8394 22.4047C42.089 22.4601 42.3026 22.5802 42.4889 22.7521C42.6388 22.8903 42.7424 23.0592 42.796 23.2551C42.8637 23.5026 42.8941 23.7543 42.8635 24.0119C42.8474 24.1485 42.8244 24.2827 42.7749 24.4112C42.6369 24.77 42.385 25.0111 42.0212 25.1336L42.0212 25.1336Z" fill="#1E3D71"/>
<path d="M20.9589 23.792C20.9228 23.4407 20.7865 23.1327 20.5396 22.8761C20.3019 22.629 20.0172 22.4559 19.6979 22.3377C19.3871 22.2228 19.0642 22.1582 18.7368 22.1148C18.4712 22.0796 18.204 22.0687 17.936 22.0691C16.9651 22.0706 15.9943 22.0697 15.0234 22.0698C14.9736 22.0698 14.9238 22.0699 14.8741 22.0712C14.8388 22.0721 14.8156 22.0947 14.8146 22.1289C14.8135 22.1724 14.8138 22.2159 14.8137 22.2595C14.8137 22.2656 14.8156 22.2717 14.8161 22.2779C14.8181 22.3012 14.8411 22.3266 14.863 22.3274C14.9624 22.3312 15.0619 22.3336 15.1613 22.3381C15.2798 22.3435 15.3966 22.3604 15.509 22.3994C15.6305 22.4416 15.7054 22.5278 15.7331 22.6528C15.7532 22.7439 15.7699 22.8359 15.771 22.9299C15.7727 23.0793 15.777 23.2287 15.7771 23.3782C15.7778 24.0631 15.7774 24.748 15.7774 25.433C15.7774 26.1242 15.7778 26.8154 15.7771 27.5066C15.777 27.656 15.7727 27.8054 15.7704 27.9548C15.7688 28.055 15.7514 28.1535 15.727 28.2499C15.6944 28.3788 15.6167 28.4712 15.4859 28.5118C15.4563 28.521 15.4267 28.5317 15.3962 28.5364C15.2795 28.5544 15.1627 28.5739 15.0439 28.5732C14.9878 28.5729 14.9318 28.5744 14.8758 28.5761C14.8405 28.5771 14.8154 28.6001 14.815 28.6329C14.8145 28.6825 14.8159 28.7322 14.8174 28.7818C14.8181 28.8036 14.844 28.8276 14.8672 28.8283C14.9231 28.8299 14.9791 28.8315 15.035 28.8315C15.8005 28.8317 16.566 28.8317 17.3315 28.8317C17.568 28.8317 17.8045 28.8318 18.041 28.8313C18.0718 28.8313 18.1029 28.8294 18.1333 28.8247C18.1433 28.8231 18.1556 28.8112 18.1593 28.8012C18.1657 28.7842 18.1685 28.7649 18.1685 28.7466C18.1681 28.5691 18.1897 28.5747 17.9982 28.5746C17.8299 28.5745 17.6621 28.5675 17.4961 28.5376C17.3115 28.5043 17.1956 28.3977 17.1537 28.2135C17.1302 28.11 17.1165 28.0053 17.1169 27.8989C17.1176 27.7308 17.1165 27.5627 17.1165 27.3945C17.1164 26.8341 17.1164 26.2737 17.1166 25.7132C17.1166 25.676 17.1178 25.6386 17.1192 25.6013C17.1202 25.5755 17.1407 25.5518 17.1632 25.5509C17.2066 25.5491 17.2501 25.547 17.2936 25.547C17.6546 25.5466 18.0155 25.5472 18.3765 25.5466C18.6254 25.5461 18.8739 25.5421 19.1224 25.5188C19.3148 25.5007 19.5056 25.476 19.6941 25.4349C19.8953 25.3912 20.0909 25.3297 20.2718 25.229C20.6291 25.0304 20.8567 24.736 20.939 24.3311C20.9755 24.1516 20.9771 23.9714 20.9587 23.7919L20.9589 23.792ZM19.5123 24.3831C19.3935 24.7406 19.1558 24.9902 18.8099 25.1361C18.5839 25.2314 18.3463 25.2784 18.1021 25.2859C17.8845 25.2925 17.6667 25.2904 17.449 25.2912C17.3557 25.2916 17.2624 25.2899 17.1692 25.2885C17.1429 25.2881 17.1201 25.2675 17.1196 25.2443C17.1181 25.1883 17.1167 25.1323 17.1167 25.0763C17.1165 24.7153 17.1166 24.3543 17.1166 23.9932H17.1168C17.1169 23.6198 17.117 23.2463 17.1168 22.8728C17.1167 22.7729 17.1217 22.6736 17.149 22.5768C17.1558 22.553 17.1626 22.529 17.1717 22.506C17.196 22.4446 17.2409 22.4011 17.3025 22.3813C17.3614 22.3624 17.4227 22.3446 17.4839 22.3403C17.8974 22.311 18.304 22.3446 18.6966 22.4885C18.8372 22.54 18.9719 22.6042 19.0975 22.6856C19.362 22.8569 19.5233 23.0989 19.5835 23.4077C19.6482 23.7391 19.6182 24.0645 19.5123 24.3831V24.3831Z" fill="#1E3D71"/>
<path d="M53.8656 28.5758C53.8471 28.5729 53.8286 28.5712 53.8102 28.5681C53.6998 28.5499 53.5892 28.5329 53.4817 28.5003C53.2766 28.4382 53.112 28.3248 53.0096 28.1318C52.9455 28.011 52.8802 27.8907 52.8197 27.7681C52.7593 27.6455 52.7061 27.5192 52.6464 27.3961C51.8043 25.6618 50.9616 23.9277 50.119 22.1936C50.1 22.1544 50.0812 22.115 50.0602 22.0769C50.0452 22.0498 50.028 22.0237 50.0096 21.9989C49.9706 21.9466 49.9092 21.9386 49.8646 21.9816C49.8244 22.0204 49.7871 22.0622 49.7492 22.1034C49.6776 22.1811 49.6076 22.2604 49.5348 22.3371C49.3848 22.4952 49.2269 22.6451 49.0624 22.7882C49.0343 22.8127 49.0071 22.8382 48.98 22.8638C48.9614 22.8813 48.9588 22.9091 48.9779 22.9297C49.0382 22.995 49.075 23.0737 49.1093 23.1539C49.1222 23.1839 49.1204 23.2138 49.1064 23.2439C49.0829 23.2946 49.0613 23.3463 49.0384 23.3974C48.6007 24.3734 48.1629 25.3495 47.7252 26.3255C47.5318 26.7567 47.3379 27.1878 47.1452 27.6194C47.0687 27.7906 46.9774 27.9523 46.8621 28.1007C46.7167 28.288 46.5322 28.4195 46.3087 28.4965C46.2558 28.5147 46.2015 28.5286 46.1481 28.5449C46.1184 28.554 46.0891 28.5645 46.0594 28.5735C46.0386 28.5798 46.0281 28.597 46.0274 28.6144C46.0251 28.6702 46.0263 28.7262 46.0273 28.7821C46.0277 28.8064 46.0504 28.8272 46.0759 28.8287C46.1007 28.8301 46.1255 28.8315 46.1504 28.8315C46.7912 28.8317 47.432 28.8316 48.0729 28.8315C48.0977 28.8315 48.1229 28.8316 48.1473 28.8277C48.1651 28.8248 48.1851 28.8145 48.1858 28.7943C48.1881 28.7324 48.188 28.6704 48.1862 28.6087C48.1859 28.5994 48.1725 28.5851 48.1628 28.5828C48.139 28.577 48.1139 28.5745 48.0893 28.5749C47.9829 28.5764 47.8787 28.5581 47.7747 28.5388C47.7009 28.525 47.631 28.4999 47.564 28.4659C47.4066 28.3862 47.3551 28.2283 47.3863 28.0921C47.4128 27.9763 47.4471 27.8636 47.4927 27.7544C47.61 27.4732 47.7294 27.1929 47.8481 26.9122C47.8553 26.8951 47.8621 26.8776 47.871 26.8613C47.8832 26.8388 47.9006 26.8209 47.9281 26.8198C47.9716 26.8182 48.0151 26.8174 48.0586 26.8174C48.9421 26.8173 49.8256 26.8173 50.7091 26.8174C50.7464 26.8174 50.7837 26.8189 50.821 26.8183C50.8566 26.8177 50.8779 26.8375 50.894 26.8659C50.9 26.8767 50.9063 26.8874 50.9119 26.8986C51.0616 27.1992 51.2131 27.4988 51.3597 27.8009C51.4002 27.8844 51.4297 27.9738 51.4575 28.0626C51.4721 28.1092 51.4747 28.1603 51.4778 28.2097C51.4839 28.3051 51.4395 28.3769 51.3654 28.4327C51.3202 28.4667 51.2695 28.4894 51.2157 28.5067C51.0965 28.545 50.9739 28.5638 50.8495 28.5719C50.7999 28.5752 50.7499 28.5744 50.7007 28.5806C50.6865 28.5824 50.6638 28.6014 50.6632 28.6134C50.6603 28.6751 50.6622 28.7372 50.6653 28.7989C50.6657 28.8078 50.6806 28.8222 50.69 28.8233C50.733 28.8282 50.7764 28.8313 50.8196 28.8314C51.3049 28.8319 51.7902 28.8317 52.2755 28.8317C52.7484 28.8317 53.2212 28.8318 53.6941 28.8316C53.75 28.8316 53.806 28.8301 53.862 28.8286C53.8832 28.828 53.9065 28.8019 53.9068 28.7779C53.9075 28.7282 53.9076 28.6785 53.9068 28.6288C53.9064 28.6014 53.8885 28.5794 53.8656 28.5759L53.8656 28.5758ZM50.616 26.4822C50.5602 26.4841 50.5043 26.4869 50.4485 26.4869C50.0752 26.4873 49.7018 26.4871 49.3286 26.4871C48.9553 26.4871 48.5819 26.4873 48.2086 26.4869C48.1528 26.4869 48.0969 26.4841 48.0411 26.4827C48.0261 26.4824 48.0084 26.4568 48.0139 26.4434C48.0283 26.409 48.0424 26.3745 48.0578 26.3404C48.4473 25.4791 48.8368 24.6178 49.2267 23.7566C49.242 23.7227 49.2594 23.6898 49.2765 23.6568C49.2792 23.6514 49.2867 23.6429 49.2887 23.6438C49.2991 23.6484 49.3122 23.6532 49.3176 23.6621C49.3368 23.6939 49.3546 23.7267 49.3706 23.7603C49.7758 24.6144 50.1807 25.4686 50.5855 26.3229C50.6042 26.3622 50.6218 26.402 50.6395 26.4418C50.6461 26.4567 50.6315 26.4816 50.6161 26.4821L50.616 26.4822Z" fill="#1E3D71"/>
</svg>
